# xmcd
#
# Track frame offsets: 
#        150
#        11181
#        21282
#        30824
#        40641
#        50279
#        60995
#        70697
#        80862
#        91258
#        102767
#        113345
#        124873
#        136561
#        146163
#        156850
#        168246
#        180003
#        189294
#        199048
#        208214
#        219903
#
# Disc length: 3063 seconds
#
# Revision: 0
# Processed by: cddbd v1.5.2PL0 Copyright (c) Steve Scherf et al.
# Submitted via: ExactAudioCopy v1.3
#
DISCID=130bf516
DTITLE=Don Bryant -  The Hi Records single collection
DYEAR=2013
DGENRE=Soul
TTITLE0=I Like It Like That
TTITLE1=My Baby
TTITLE2=Don't Turn Your Back On Me
TTITLE3=Star Of Love
TTITLE4=That Driving Beat
TTITLE5=Everything's Gonna Be Alright
TTITLE6=Glory Of Love
TTITLE7=I'll Do The Rest
TTITLE8=Coming On Strong
TTITLE9=The Lonely Soldier
TTITLE10=The Call Of Distress
TTITLE11=Doing The Mustang
TTITLE12=Is That Asking Too Much?
TTITLE13=Can't Hide The Hurt
TTITLE14=There's Something On Your Mind Pt.1
TTITLE15=There's Something On Your Mind Pt.2
TTITLE16=Shop Around
TTITLE17=I'll Go Crazy
TTITLE18=That Ain't Right Woman
TTITLE19=You Cause Me To Wonder
TTITLE20=It's So Lonely Being Me
TTITLE21=What Are You Doing To My World?
EXTD=
EXTT0=
EXTT1=
EXTT2=
EXTT3=
EXTT4=
EXTT5=
EXTT6=
EXTT7=
EXTT8=
EXTT9=
EXTT10=
EXTT11=
EXTT12=
EXTT13=
EXTT14=
EXTT15=
EXTT16=
EXTT17=
EXTT18=
EXTT19=
EXTT20=
EXTT21=
PLAYORDER=
